<svg xmlns="http://www.w3.org/2000/svg" viewBox="0 0 512 512" role="img" aria-label="Blowfish illustration">
  <title>Blowfish illustration</title>
  <defs>
    <linearGradient id="g" x1="0" y1="0" x2="1" y2="1">
      <stop offset="0" stop-color="#fbbf24"/>
      <stop offset="1" stop-color="#f97316"/>
    </linearGradient>
  </defs>

  <!-- Spikes -->
  <g fill="#9a3412" opacity="0.9">
    <path d="M256 24l14 48h-28z"/>
    <path d="M384 64l-10 49-23-17z"/>
    <path d="M456 160l-44 23 5-28z"/>
    <path d="M488 256l-48 14v-28z"/>
    <path d="M456 352l-39-28 28-6z"/>
    <path d="M384 448l-33-38 28 6z"/>
    <path d="M256 488l-14-48h28z"/>
    <path d="M128 448l10-49 23 17z"/>
    <path d="M56 352l44-23-5 28z"/>
    <path d="M24 256l48-14v28z"/>
    <path d="M56 160l39 28-28 6z"/>
    <path d="M128 64l33 38-28-6z"/>
  </g>

  <!-- Body -->
  <circle cx="256" cy="256" r="170" fill="url(#g)" stroke="#9a3412" stroke-width="14"/>

  <!-- Fins -->
  <path d="M125 260c-34 18-58 46-66 76 34-10 70-34 90-60 8-10 9-19-24-16z" fill="#fb7185" opacity="0.9"/>
  <path d="M387 268c44 2 76 24 96 52-38 6-84-10-108-30-14-11-16-22 12-22z" fill="#fb7185" opacity="0.9"/>

  <!-- Face -->
  <circle cx="210" cy="230" r="22" fill="#111827"/>
  <circle cx="202" cy="222" r="7" fill="#f9fafb" opacity="0.9"/>
  <circle cx="302" cy="230" r="22" fill="#111827"/>
  <circle cx="294" cy="222" r="7" fill="#f9fafb" opacity="0.9"/>

  <path d="M224 296c18 22 46 34 82 34s64-12 82-34" fill="none" stroke="#111827" stroke-width="12" stroke-linecap="round"/>

  <!-- Dots -->
  <g fill="#9a3412" opacity="0.45">
    <circle cx="190" cy="300" r="10"/>
    <circle cx="230" cy="340" r="8"/>
    <circle cx="280" cy="360" r="9"/>
    <circle cx="330" cy="330" r="7"/>
    <circle cx="350" cy="290" r="9"/>
    <circle cx="170" cy="250" r="7"/>
    <circle cx="320" cy="250" r="6"/>
  </g>
</svg>
