<?xml version="1.0" encoding="UTF-8" standalone="no"?>
<!DOCTYPE svg PUBLIC "-//W3C//DTD SVG 1.1//EN"
 "http://www.w3.org/Graphics/SVG/1.1/DTD/svg11.dtd">
<!-- Generated by graphviz version 14.1.2 (20260124.0452)
 -->
<!-- Title: attack_chain Pages: 1 -->
<svg host="drawio-gen" content="&lt;mxfile host=&quot;drawio-gen&quot;&gt;&lt;diagram name=&quot;Page-1&quot; id=&quot;page1&quot;&gt;&lt;mxGraphModel&gt;&lt;root&gt;&lt;mxCell id=&quot;0&quot; /&gt;&lt;mxCell id=&quot;1&quot; parent=&quot;0&quot; /&gt;&lt;mxCell id=&quot;2&quot; value=&quot;T1195&amp;lt;br&amp;gt;Supply Chain&amp;lt;br&amp;gt;Compromise&quot; style=&quot;rounded=1;whiteSpace=wrap;html=1;fillColor=#e74c3c;strokeColor=#e74c3c;fontColor=#ffffff;fontSize=13;fontStyle=1;&quot; vertex=&quot;1&quot; parent=&quot;1&quot;&gt;&lt;mxGeometry x=&quot;-0.4&quot; y=&quot;-257.6&quot; width=&quot;115.2&quot; height=&quot;62.0&quot; as=&quot;geometry&quot; /&gt;&lt;/mxCell&gt;&lt;mxCell id=&quot;3&quot; value=&quot;T1059&amp;lt;br&amp;gt;Execution&quot; style=&quot;rounded=1;whiteSpace=wrap;html=1;fillColor=#e67e22;strokeColor=#e67e22;fontColor=#ffffff;fontSize=13;fontStyle=1;&quot; vertex=&quot;1&quot; parent=&quot;1&quot;&gt;&lt;mxGeometry x=&quot;158.6&quot; y=&quot;-248.6&quot; width=&quot;115.2&quot; height=&quot;44.0&quot; as=&quot;geometry&quot; /&gt;&lt;/mxCell&gt;&lt;mxCell id=&quot;4&quot; value=&quot;T1552&amp;lt;br&amp;gt;Unsecured&amp;lt;br&amp;gt;Credentials&quot; style=&quot;rounded=1;whiteSpace=wrap;html=1;fillColor=#f39c12;strokeColor=#f39c12;fontColor=#ffffff;fontSize=13;fontStyle=1;&quot; vertex=&quot;1&quot; parent=&quot;1&quot;&gt;&lt;mxGeometry x=&quot;316.6&quot; y=&quot;-257.6&quot; width=&quot;115.2&quot; height=&quot;62.0&quot; as=&quot;geometry&quot; /&gt;&lt;/mxCell&gt;&lt;mxCell id=&quot;5&quot; value=&quot;T1078&amp;lt;br&amp;gt;Valid Accounts&quot; style=&quot;rounded=1;whiteSpace=wrap;html=1;fillColor=#2ecc71;strokeColor=#2ecc71;fontColor=#ffffff;fontSize=13;fontStyle=1;&quot; vertex=&quot;1&quot; parent=&quot;1&quot;&gt;&lt;mxGeometry x=&quot;474.6&quot; y=&quot;-248.6&quot; width=&quot;115.2&quot; height=&quot;44.0&quot; as=&quot;geometry&quot; /&gt;&lt;/mxCell&gt;&lt;mxCell id=&quot;6&quot; value=&quot;T1098&amp;lt;br&amp;gt;Account&amp;lt;br&amp;gt;Manipulation&quot; style=&quot;rounded=1;whiteSpace=wrap;html=1;fillColor=#3498db;strokeColor=#3498db;fontColor=#ffffff;fontSize=13;fontStyle=1;&quot; vertex=&quot;1&quot; parent=&quot;1&quot;&gt;&lt;mxGeometry x=&quot;632.6&quot; y=&quot;-257.6&quot; width=&quot;115.2&quot; height=&quot;62.0&quot; as=&quot;geometry&quot; /&gt;&lt;/mxCell&gt;&lt;mxCell id=&quot;7&quot; value=&quot;T1567&amp;lt;br&amp;gt;Exfiltration&quot; style=&quot;rounded=1;whiteSpace=wrap;html=1;fillColor=#9b59b6;strokeColor=#9b59b6;fontColor=#ffffff;fontSize=13;fontStyle=1;&quot; vertex=&quot;1&quot; parent=&quot;1&quot;&gt;&lt;mxGeometry x=&quot;790.6&quot; y=&quot;-248.6&quot; width=&quot;115.2&quot; height=&quot;44.0&quot; as=&quot;geometry&quot; /&gt;&lt;/mxCell&gt;&lt;mxCell id=&quot;8&quot; value=&quot;&quot; style=&quot;endArrow=block;endFill=1;strokeColor=#cccccc;strokeWidth=2;&quot; edge=&quot;1&quot; source=&quot;2&quot; target=&quot;3&quot; parent=&quot;1&quot;&gt;&lt;mxGeometry relative=&quot;1&quot; as=&quot;geometry&quot; /&gt;&lt;/mxCell&gt;&lt;mxCell id=&quot;9&quot; value=&quot;&quot; style=&quot;endArrow=block;endFill=1;strokeColor=#cccccc;strokeWidth=2;&quot; edge=&quot;1&quot; source=&quot;3&quot; target=&quot;4&quot; parent=&quot;1&quot;&gt;&lt;mxGeometry relative=&quot;1&quot; as=&quot;geometry&quot; /&gt;&lt;/mxCell&gt;&lt;mxCell id=&quot;10&quot; value=&quot;&quot; style=&quot;endArrow=block;endFill=1;strokeColor=#cccccc;strokeWidth=2;&quot; edge=&quot;1&quot; source=&quot;4&quot; target=&quot;5&quot; parent=&quot;1&quot;&gt;&lt;mxGeometry relative=&quot;1&quot; as=&quot;geometry&quot; /&gt;&lt;/mxCell&gt;&lt;mxCell id=&quot;11&quot; value=&quot;&quot; style=&quot;endArrow=block;endFill=1;strokeColor=#cccccc;strokeWidth=2;&quot; edge=&quot;1&quot; source=&quot;5&quot; target=&quot;6&quot; parent=&quot;1&quot;&gt;&lt;mxGeometry relative=&quot;1&quot; as=&quot;geometry&quot; /&gt;&lt;/mxCell&gt;&lt;mxCell id=&quot;12&quot; value=&quot;&quot; style=&quot;endArrow=block;endFill=1;strokeColor=#cccccc;strokeWidth=2;&quot; edge=&quot;1&quot; source=&quot;6&quot; target=&quot;7&quot; parent=&quot;1&quot;&gt;&lt;mxGeometry relative=&quot;1&quot; as=&quot;geometry&quot; /&gt;&lt;/mxCell&gt;&lt;/root&gt;&lt;/mxGraphModel&gt;&lt;/diagram&gt;&lt;/mxfile&gt;" width="679pt" height="360pt"
 viewBox="0.00 0.00 679.00 360.00" xmlns="http://www.w3.org/2000/svg" xmlns:xlink="http://www.w3.org/1999/xlink">
<g id="graph0" class="graph" transform="scale(0.704915 0.704915) rotate(0) translate(28.8 481.9)">
<title>attack_chain</title>
<polygon fill="#1a1a2e" stroke="none" points="-28.8,28.8 -28.8,-481.9 935,-481.9 935,28.8 -28.8,28.8"/>
<!-- T1195 -->
<g id="node1" class="node">
<title>T1195</title>
<path fill="#e74c3c" stroke="#e74c3c" stroke-width="2.5" d="M102.8,-257.55C102.8,-257.55 11.6,-257.55 11.6,-257.55 5.6,-257.55 -0.4,-251.55 -0.4,-245.55 -0.4,-245.55 -0.4,-207.55 -0.4,-207.55 -0.4,-201.55 5.6,-195.55 11.6,-195.55 11.6,-195.55 102.8,-195.55 102.8,-195.55 108.8,-195.55 114.8,-201.55 114.8,-207.55 114.8,-207.55 114.8,-245.55 114.8,-245.55 114.8,-251.55 108.8,-257.55 102.8,-257.55"/>
<text xml:space="preserve" text-anchor="middle" x="57.2" y="-241.2" font-family="Segoe UI,Helvetica,Arial,sans-serif" font-size="13.00" fill="white">T1195</text>
<text xml:space="preserve" text-anchor="middle" x="57.2" y="-223.2" font-family="Segoe UI,Helvetica,Arial,sans-serif" font-size="13.00" fill="white">Supply Chain</text>
<text xml:space="preserve" text-anchor="middle" x="57.2" y="-205.2" font-family="Segoe UI,Helvetica,Arial,sans-serif" font-size="13.00" fill="white">Compromise</text>
</g>
<!-- T1059 -->
<g id="node2" class="node">
<title>T1059</title>
<path fill="#e67e22" stroke="#e67e22" stroke-width="2.5" d="M261.8,-248.55C261.8,-248.55 170.6,-248.55 170.6,-248.55 164.6,-248.55 158.6,-242.55 158.6,-236.55 158.6,-236.55 158.6,-216.55 158.6,-216.55 158.6,-210.55 164.6,-204.55 170.6,-204.55 170.6,-204.55 261.8,-204.55 261.8,-204.55 267.8,-204.55 273.8,-210.55 273.8,-216.55 273.8,-216.55 273.8,-236.55 273.8,-236.55 273.8,-242.55 267.8,-248.55 261.8,-248.55"/>
<text xml:space="preserve" text-anchor="middle" x="216.2" y="-232.2" font-family="Segoe UI,Helvetica,Arial,sans-serif" font-size="13.00" fill="white">T1059</text>
<text xml:space="preserve" text-anchor="middle" x="216.2" y="-214.2" font-family="Segoe UI,Helvetica,Arial,sans-serif" font-size="13.00" fill="white">Execution</text>
</g>
<!-- T1195&#45;&gt;T1059 -->
<g id="edge1" class="edge">
<title>T1195&#45;&gt;T1059</title>
<path fill="none" stroke="#cccccc" stroke-width="2" d="M115.77,-226.55C125.41,-226.55 135.51,-226.55 145.42,-226.55"/>
<polygon fill="#cccccc" stroke="#cccccc" stroke-width="2" points="145.35,-229.7 154.35,-226.55 145.35,-223.4 145.35,-229.7"/>
</g>
<!-- T1552 -->
<g id="node3" class="node">
<title>T1552</title>
<path fill="#f39c12" stroke="#f39c12" stroke-width="2.5" d="M419.8,-257.55C419.8,-257.55 328.6,-257.55 328.6,-257.55 322.6,-257.55 316.6,-251.55 316.6,-245.55 316.6,-245.55 316.6,-207.55 316.6,-207.55 316.6,-201.55 322.6,-195.55 328.6,-195.55 328.6,-195.55 419.8,-195.55 419.8,-195.55 425.8,-195.55 431.8,-201.55 431.8,-207.55 431.8,-207.55 431.8,-245.55 431.8,-245.55 431.8,-251.55 425.8,-257.55 419.8,-257.55"/>
<text xml:space="preserve" text-anchor="middle" x="374.2" y="-241.2" font-family="Segoe UI,Helvetica,Arial,sans-serif" font-size="13.00" fill="white">T1552</text>
<text xml:space="preserve" text-anchor="middle" x="374.2" y="-223.2" font-family="Segoe UI,Helvetica,Arial,sans-serif" font-size="13.00" fill="white">Unsecured</text>
<text xml:space="preserve" text-anchor="middle" x="374.2" y="-205.2" font-family="Segoe UI,Helvetica,Arial,sans-serif" font-size="13.00" fill="white">Credentials</text>
</g>
<!-- T1059&#45;&gt;T1552 -->
<g id="edge2" class="edge">
<title>T1059&#45;&gt;T1552</title>
<path fill="none" stroke="#cccccc" stroke-width="2" d="M274.85,-226.55C284.18,-226.55 293.94,-226.55 303.52,-226.55"/>
<polygon fill="#cccccc" stroke="#cccccc" stroke-width="2" points="303.5,-229.7 312.5,-226.55 303.5,-223.4 303.5,-229.7"/>
</g>
<!-- T1078 -->
<g id="node4" class="node">
<title>T1078</title>
<path fill="#2ecc71" stroke="#2ecc71" stroke-width="2.5" d="M577.8,-248.55C577.8,-248.55 486.6,-248.55 486.6,-248.55 480.6,-248.55 474.6,-242.55 474.6,-236.55 474.6,-236.55 474.6,-216.55 474.6,-216.55 474.6,-210.55 480.6,-204.55 486.6,-204.55 486.6,-204.55 577.8,-204.55 577.8,-204.55 583.8,-204.55 589.8,-210.55 589.8,-216.55 589.8,-216.55 589.8,-236.55 589.8,-236.55 589.8,-242.55 583.8,-248.55 577.8,-248.55"/>
<text xml:space="preserve" text-anchor="middle" x="532.2" y="-232.2" font-family="Segoe UI,Helvetica,Arial,sans-serif" font-size="13.00" fill="white">T1078</text>
<text xml:space="preserve" text-anchor="middle" x="532.2" y="-214.2" font-family="Segoe UI,Helvetica,Arial,sans-serif" font-size="13.00" fill="white">Valid Accounts</text>
</g>
<!-- T1552&#45;&gt;T1078 -->
<g id="edge3" class="edge">
<title>T1552&#45;&gt;T1078</title>
<path fill="none" stroke="#cccccc" stroke-width="2" d="M432.85,-226.55C442.18,-226.55 451.94,-226.55 461.52,-226.55"/>
<polygon fill="#cccccc" stroke="#cccccc" stroke-width="2" points="461.5,-229.7 470.5,-226.55 461.5,-223.4 461.5,-229.7"/>
</g>
<!-- T1098 -->
<g id="node5" class="node">
<title>T1098</title>
<path fill="#3498db" stroke="#3498db" stroke-width="2.5" d="M735.8,-257.55C735.8,-257.55 644.6,-257.55 644.6,-257.55 638.6,-257.55 632.6,-251.55 632.6,-245.55 632.6,-245.55 632.6,-207.55 632.6,-207.55 632.6,-201.55 638.6,-195.55 644.6,-195.55 644.6,-195.55 735.8,-195.55 735.8,-195.55 741.8,-195.55 747.8,-201.55 747.8,-207.55 747.8,-207.55 747.8,-245.55 747.8,-245.55 747.8,-251.55 741.8,-257.55 735.8,-257.55"/>
<text xml:space="preserve" text-anchor="middle" x="690.2" y="-241.2" font-family="Segoe UI,Helvetica,Arial,sans-serif" font-size="13.00" fill="white">T1098</text>
<text xml:space="preserve" text-anchor="middle" x="690.2" y="-223.2" font-family="Segoe UI,Helvetica,Arial,sans-serif" font-size="13.00" fill="white">Account</text>
<text xml:space="preserve" text-anchor="middle" x="690.2" y="-205.2" font-family="Segoe UI,Helvetica,Arial,sans-serif" font-size="13.00" fill="white">Manipulation</text>
</g>
<!-- T1078&#45;&gt;T1098 -->
<g id="edge4" class="edge">
<title>T1078&#45;&gt;T1098</title>
<path fill="none" stroke="#cccccc" stroke-width="2" d="M590.85,-226.55C600.18,-226.55 609.94,-226.55 619.52,-226.55"/>
<polygon fill="#cccccc" stroke="#cccccc" stroke-width="2" points="619.5,-229.7 628.5,-226.55 619.5,-223.4 619.5,-229.7"/>
</g>
<!-- T1567 -->
<g id="node6" class="node">
<title>T1567</title>
<path fill="#9b59b6" stroke="#9b59b6" stroke-width="2.5" d="M893.8,-248.55C893.8,-248.55 802.6,-248.55 802.6,-248.55 796.6,-248.55 790.6,-242.55 790.6,-236.55 790.6,-236.55 790.6,-216.55 790.6,-216.55 790.6,-210.55 796.6,-204.55 802.6,-204.55 802.6,-204.55 893.8,-204.55 893.8,-204.55 899.8,-204.55 905.8,-210.55 905.8,-216.55 905.8,-216.55 905.8,-236.55 905.8,-236.55 905.8,-242.55 899.8,-248.55 893.8,-248.55"/>
<text xml:space="preserve" text-anchor="middle" x="848.2" y="-232.2" font-family="Segoe UI,Helvetica,Arial,sans-serif" font-size="13.00" fill="white">T1567</text>
<text xml:space="preserve" text-anchor="middle" x="848.2" y="-214.2" font-family="Segoe UI,Helvetica,Arial,sans-serif" font-size="13.00" fill="white">Exfiltration</text>
</g>
<!-- T1098&#45;&gt;T1567 -->
<g id="edge5" class="edge">
<title>T1098&#45;&gt;T1567</title>
<path fill="none" stroke="#cccccc" stroke-width="2" d="M748.85,-226.55C758.18,-226.55 767.94,-226.55 777.52,-226.55"/>
<polygon fill="#cccccc" stroke="#cccccc" stroke-width="2" points="777.5,-229.7 786.5,-226.55 777.5,-223.4 777.5,-229.7"/>
</g>
</g>
</svg>
