<?xml version="1.0" encoding="UTF-8" standalone="no"?>
<!DOCTYPE svg PUBLIC "-//W3C//DTD SVG 1.1//EN"
 "http://www.w3.org/Graphics/SVG/1.1/DTD/svg11.dtd">
<!-- Generated by graphviz version 14.1.2 (20260124.0452)
 -->
<!-- Title: ecosystem Pages: 1 -->
<svg host="drawio-gen" content="&lt;mxfile host=&quot;drawio-gen&quot;&gt;&lt;diagram name=&quot;Page-1&quot; id=&quot;page1&quot;&gt;&lt;mxGraphModel&gt;&lt;root&gt;&lt;mxCell id=&quot;0&quot; /&gt;&lt;mxCell id=&quot;1&quot; parent=&quot;0&quot; /&gt;&lt;mxCell id=&quot;2&quot; value=&quot;Offense&quot; style=&quot;rounded=1;whiteSpace=wrap;html=1;fillColor=none;strokeColor=#555555;fontColor=#999999;fontSize=14;fontStyle=1;verticalAlign=top;spacingTop=5;dashed=1;strokeWidth=1.5;&quot; vertex=&quot;1&quot; parent=&quot;1&quot;&gt;&lt;mxGeometry x=&quot;4.1&quot; y=&quot;-295.4&quot; width=&quot;330.2&quot; height=&quot;267.1&quot; as=&quot;geometry&quot; /&gt;&lt;/mxCell&gt;&lt;mxCell id=&quot;3&quot; value=&quot;CVE&amp;lt;br&amp;gt;Vulnerabilities&quot; style=&quot;rounded=1;whiteSpace=wrap;html=1;fillColor=#0f3460;strokeColor=#e67e22;fontColor=#ffffff;fontSize=13;fontStyle=1;&quot; vertex=&quot;1&quot; parent=&quot;1&quot;&gt;&lt;mxGeometry x=&quot;204.1&quot; y=&quot;-87.3&quot; width=&quot;115.2&quot; height=&quot;44.0&quot; as=&quot;geometry&quot; /&gt;&lt;/mxCell&gt;&lt;mxCell id=&quot;4&quot; value=&quot;CWE&amp;lt;br&amp;gt;Weaknesses&quot; style=&quot;rounded=1;whiteSpace=wrap;html=1;fillColor=#0f3460;strokeColor=#e67e22;fontColor=#ffffff;fontSize=13;fontStyle=1;&quot; vertex=&quot;1&quot; parent=&quot;1&quot;&gt;&lt;mxGeometry x=&quot;19.1&quot; y=&quot;-173.3&quot; width=&quot;115.2&quot; height=&quot;44.0&quot; as=&quot;geometry&quot; /&gt;&lt;/mxCell&gt;&lt;mxCell id=&quot;5&quot; value=&quot;CAPEC&amp;lt;br&amp;gt;Attack Patterns&quot; style=&quot;rounded=1;whiteSpace=wrap;html=1;fillColor=#0f3460;strokeColor=#e67e22;fontColor=#ffffff;fontSize=13;fontStyle=1;&quot; vertex=&quot;1&quot; parent=&quot;1&quot;&gt;&lt;mxGeometry x=&quot;204.1&quot; y=&quot;-260.4&quot; width=&quot;115.2&quot; height=&quot;44.0&quot; as=&quot;geometry&quot; /&gt;&lt;/mxCell&gt;&lt;mxCell id=&quot;6&quot; value=&quot;Core&quot; style=&quot;rounded=1;whiteSpace=wrap;html=1;fillColor=none;strokeColor=#555555;fontColor=#999999;fontSize=14;fontStyle=1;verticalAlign=top;spacingTop=5;dashed=1;strokeWidth=1.5;&quot; vertex=&quot;1&quot; parent=&quot;1&quot;&gt;&lt;mxGeometry x=&quot;374.3&quot; y=&quot;-208.3&quot; width=&quot;154.8&quot; height=&quot;94.0&quot; as=&quot;geometry&quot; /&gt;&lt;/mxCell&gt;&lt;mxCell id=&quot;7&quot; value=&quot;ATT&amp;amp;CK&amp;lt;br&amp;gt;Adversary Behavior&quot; style=&quot;rounded=1;whiteSpace=wrap;html=1;fillColor=#0f3460;strokeColor=#e94560;fontColor=#ffffff;fontSize=13;fontStyle=1;&quot; vertex=&quot;1&quot; parent=&quot;1&quot;&gt;&lt;mxGeometry x=&quot;389.3&quot; y=&quot;-173.3&quot; width=&quot;124.8&quot; height=&quot;44.0&quot; as=&quot;geometry&quot; /&gt;&lt;/mxCell&gt;&lt;mxCell id=&quot;8&quot; value=&quot;Defense&quot; style=&quot;rounded=1;whiteSpace=wrap;html=1;fillColor=none;strokeColor=#555555;fontColor=#999999;fontSize=14;fontStyle=1;verticalAlign=top;spacingTop=5;dashed=1;strokeWidth=1.5;&quot; vertex=&quot;1&quot; parent=&quot;1&quot;&gt;&lt;mxGeometry x=&quot;569.4&quot; y=&quot;-295.4&quot; width=&quot;146.5&quot; height=&quot;267.1&quot; as=&quot;geometry&quot; /&gt;&lt;/mxCell&gt;&lt;mxCell id=&quot;9&quot; value=&quot;D3FEND&amp;lt;br&amp;gt;Countermeasures&quot; style=&quot;rounded=1;whiteSpace=wrap;html=1;fillColor=#0f3460;strokeColor=#16a085;fontColor=#ffffff;fontSize=13;fontStyle=1;&quot; vertex=&quot;1&quot; parent=&quot;1&quot;&gt;&lt;mxGeometry x=&quot;584.4&quot; y=&quot;-87.3&quot; width=&quot;116.5&quot; height=&quot;44.0&quot; as=&quot;geometry&quot; /&gt;&lt;/mxCell&gt;&lt;mxCell id=&quot;10&quot; value=&quot;ATLAS&amp;lt;br&amp;gt;AI/ML Threats&quot; style=&quot;rounded=1;whiteSpace=wrap;html=1;fillColor=#0f3460;strokeColor=#9b59b6;fontColor=#ffffff;fontSize=13;fontStyle=1;&quot; vertex=&quot;1&quot; parent=&quot;1&quot;&gt;&lt;mxGeometry x=&quot;585.1&quot; y=&quot;-260.4&quot; width=&quot;115.2&quot; height=&quot;44.0&quot; as=&quot;geometry&quot; /&gt;&lt;/mxCell&gt;&lt;mxCell id=&quot;11&quot; value=&quot;&quot; style=&quot;endArrow=block;endFill=1;strokeColor=#e67e22;strokeWidth=2;&quot; edge=&quot;1&quot; source=&quot;4&quot; target=&quot;3&quot; parent=&quot;1&quot;&gt;&lt;mxGeometry relative=&quot;1&quot; as=&quot;geometry&quot; /&gt;&lt;/mxCell&gt;&lt;mxCell id=&quot;12&quot; value=&quot;&quot; style=&quot;endArrow=block;endFill=1;strokeColor=#e67e22;strokeWidth=2;&quot; edge=&quot;1&quot; source=&quot;4&quot; target=&quot;5&quot; parent=&quot;1&quot;&gt;&lt;mxGeometry relative=&quot;1&quot; as=&quot;geometry&quot; /&gt;&lt;/mxCell&gt;&lt;mxCell id=&quot;13&quot; value=&quot;&quot; style=&quot;endArrow=block;endFill=1;strokeColor=#e94560;strokeWidth=2;&quot; edge=&quot;1&quot; source=&quot;5&quot; target=&quot;7&quot; parent=&quot;1&quot;&gt;&lt;mxGeometry relative=&quot;1&quot; as=&quot;geometry&quot; /&gt;&lt;/mxCell&gt;&lt;mxCell id=&quot;14&quot; value=&quot;&quot; style=&quot;endArrow=block;endFill=1;strokeColor=#e94560;strokeWidth=2;&quot; edge=&quot;1&quot; source=&quot;3&quot; target=&quot;7&quot; parent=&quot;1&quot;&gt;&lt;mxGeometry relative=&quot;1&quot; as=&quot;geometry&quot; /&gt;&lt;/mxCell&gt;&lt;mxCell id=&quot;15&quot; value=&quot;&quot; style=&quot;endArrow=block;endFill=1;strokeColor=#16a085;strokeWidth=2;&quot; edge=&quot;1&quot; source=&quot;7&quot; target=&quot;9&quot; parent=&quot;1&quot;&gt;&lt;mxGeometry relative=&quot;1&quot; as=&quot;geometry&quot; /&gt;&lt;/mxCell&gt;&lt;mxCell id=&quot;16&quot; value=&quot;&quot; style=&quot;endArrow=block;endFill=1;strokeColor=#9b59b6;strokeWidth=2;&quot; edge=&quot;1&quot; source=&quot;7&quot; target=&quot;10&quot; parent=&quot;1&quot;&gt;&lt;mxGeometry relative=&quot;1&quot; as=&quot;geometry&quot; /&gt;&lt;/mxCell&gt;&lt;/root&gt;&lt;/mxGraphModel&gt;&lt;/diagram&gt;&lt;/mxfile&gt;" width="670pt" height="360pt"
 viewBox="0.00 0.00 670.00 360.00" xmlns="http://www.w3.org/2000/svg" xmlns:xlink="http://www.w3.org/1999/xlink">
<g id="graph0" class="graph" transform="scale(0.862069 0.862069) rotate(0) translate(28.8 388.8)">
<title>ecosystem</title>
<polygon fill="#1a1a2e" stroke="none" points="-28.8,28.8 -28.8,-388.8 748.8,-388.8 748.8,28.8 -28.8,28.8"/>
<g id="clust1" class="cluster">
<title>cluster_offense</title>
<path fill="#1a1a2e" stroke="#555555" stroke-width="1.5" stroke-dasharray="5,2" d="M21.34,-17.35C21.34,-17.35 316.56,-17.35 316.56,-17.35 322.56,-17.35 328.56,-23.35 328.56,-29.35 328.56,-29.35 328.56,-330.65 328.56,-330.65 328.56,-336.65 322.56,-342.65 316.56,-342.65 316.56,-342.65 21.34,-342.65 21.34,-342.65 15.34,-342.65 9.34,-336.65 9.34,-330.65 9.34,-330.65 9.34,-29.35 9.34,-29.35 9.34,-23.35 15.34,-17.35 21.34,-17.35"/>
<text xml:space="preserve" text-anchor="middle" x="168.95" y="-326.3" font-family="Segoe UI,Helvetica,Arial,sans-serif" font-size="13.00" fill="#999999">Offense</text>
</g>
<g id="clust2" class="cluster">
<title>cluster_core</title>
<path fill="#1a1a2e" stroke="#555555" stroke-width="1.5" stroke-dasharray="5,2" d="M390.77,-104.1C390.77,-104.1 512.43,-104.1 512.43,-104.1 518.43,-104.1 524.43,-110.1 524.43,-116.1 524.43,-116.1 524.43,-243.9 524.43,-243.9 524.43,-249.9 518.43,-255.9 512.43,-255.9 512.43,-255.9 390.77,-255.9 390.77,-255.9 384.77,-255.9 378.77,-249.9 378.77,-243.9 378.77,-243.9 378.77,-116.1 378.77,-116.1 378.77,-110.1 384.77,-104.1 390.77,-104.1"/>
<text xml:space="preserve" text-anchor="middle" x="451.6" y="-239.55" font-family="Segoe UI,Helvetica,Arial,sans-serif" font-size="13.00" fill="#999999">Core</text>
</g>
<g id="clust3" class="cluster">
<title>cluster_defense</title>
<path fill="#1a1a2e" stroke="#555555" stroke-width="1.5" stroke-dasharray="5,2" d="M586.63,-17.35C586.63,-17.35 698.66,-17.35 698.66,-17.35 704.66,-17.35 710.66,-23.35 710.66,-29.35 710.66,-29.35 710.66,-330.65 710.66,-330.65 710.66,-336.65 704.66,-342.65 698.66,-342.65 698.66,-342.65 586.63,-342.65 586.63,-342.65 580.63,-342.65 574.63,-336.65 574.63,-330.65 574.63,-330.65 574.63,-29.35 574.63,-29.35 574.63,-23.35 580.63,-17.35 586.63,-17.35"/>
<text xml:space="preserve" text-anchor="middle" x="642.65" y="-326.3" font-family="Segoe UI,Helvetica,Arial,sans-serif" font-size="13.00" fill="#999999">Defense</text>
</g>
<!-- CVE -->
<g id="node1" class="node">
<title>CVE</title>
<path fill="#0f3460" stroke="#e67e22" stroke-width="2.5" d="M307.26,-87.35C307.26,-87.35 216.06,-87.35 216.06,-87.35 210.06,-87.35 204.06,-81.35 204.06,-75.35 204.06,-75.35 204.06,-55.35 204.06,-55.35 204.06,-49.35 210.06,-43.35 216.06,-43.35 216.06,-43.35 307.26,-43.35 307.26,-43.35 313.26,-43.35 319.26,-49.35 319.26,-55.35 319.26,-55.35 319.26,-75.35 319.26,-75.35 319.26,-81.35 313.26,-87.35 307.26,-87.35"/>
<text xml:space="preserve" text-anchor="middle" x="261.66" y="-71" font-family="Segoe UI,Helvetica,Arial,sans-serif" font-size="13.00" fill="white">CVE</text>
<text xml:space="preserve" text-anchor="middle" x="261.66" y="-53" font-family="Segoe UI,Helvetica,Arial,sans-serif" font-size="13.00" fill="white">Vulnerabilities</text>
</g>
<!-- ATTACK -->
<g id="node4" class="node">
<title>ATTACK</title>
<path fill="#0f3460" stroke="#e94560" stroke-width="2.5" d="M502.03,-173.35C502.03,-173.35 401.28,-173.35 401.28,-173.35 395.28,-173.35 389.28,-167.35 389.28,-161.35 389.28,-161.35 389.28,-141.35 389.28,-141.35 389.28,-135.35 395.28,-129.35 401.28,-129.35 401.28,-129.35 502.03,-129.35 502.03,-129.35 508.03,-129.35 514.03,-135.35 514.03,-141.35 514.03,-141.35 514.03,-161.35 514.03,-161.35 514.03,-167.35 508.03,-173.35 502.03,-173.35"/>
<text xml:space="preserve" text-anchor="middle" x="451.66" y="-157" font-family="Segoe UI,Helvetica,Arial,sans-serif" font-size="13.00" fill="white">ATT&amp;CK</text>
<text xml:space="preserve" text-anchor="middle" x="451.66" y="-139" font-family="Segoe UI,Helvetica,Arial,sans-serif" font-size="13.00" fill="white">Adversary Behavior</text>
</g>
<!-- CVE&#45;&gt;ATTACK -->
<g id="edge4" class="edge">
<title>CVE&#45;&gt;ATTACK</title>
<path fill="none" stroke="#e94560" stroke-width="2" d="M313.04,-88.4C336.54,-99.14 364.71,-112.03 389.42,-123.34"/>
<polygon fill="#e94560" stroke="#e94560" stroke-width="2" points="387.89,-126.1 397.39,-126.98 390.51,-120.37 387.89,-126.1"/>
</g>
<!-- CWE -->
<g id="node2" class="node">
<title>CWE</title>
<path fill="#0f3460" stroke="#e67e22" stroke-width="2.5" d="M122.26,-173.35C122.26,-173.35 31.06,-173.35 31.06,-173.35 25.06,-173.35 19.06,-167.35 19.06,-161.35 19.06,-161.35 19.06,-141.35 19.06,-141.35 19.06,-135.35 25.06,-129.35 31.06,-129.35 31.06,-129.35 122.26,-129.35 122.26,-129.35 128.26,-129.35 134.26,-135.35 134.26,-141.35 134.26,-141.35 134.26,-161.35 134.26,-161.35 134.26,-167.35 128.26,-173.35 122.26,-173.35"/>
<text xml:space="preserve" text-anchor="middle" x="76.66" y="-157" font-family="Segoe UI,Helvetica,Arial,sans-serif" font-size="13.00" fill="white">CWE</text>
<text xml:space="preserve" text-anchor="middle" x="76.66" y="-139" font-family="Segoe UI,Helvetica,Arial,sans-serif" font-size="13.00" fill="white">Weaknesses</text>
</g>
<!-- CWE&#45;&gt;CVE -->
<g id="edge1" class="edge">
<title>CWE&#45;&gt;CVE</title>
<path fill="none" stroke="#e67e22" stroke-width="2" d="M126.7,-128.3C149.47,-117.6 176.75,-104.78 200.73,-93.52"/>
<polygon fill="#e67e22" stroke="#e67e22" stroke-width="2" points="201.94,-96.43 208.74,-89.75 199.26,-90.72 201.94,-96.43"/>
</g>
<!-- CAPEC -->
<g id="node3" class="node">
<title>CAPEC</title>
<path fill="#0f3460" stroke="#e67e22" stroke-width="2.5" d="M307.26,-260.35C307.26,-260.35 216.06,-260.35 216.06,-260.35 210.06,-260.35 204.06,-254.35 204.06,-248.35 204.06,-248.35 204.06,-228.35 204.06,-228.35 204.06,-222.35 210.06,-216.35 216.06,-216.35 216.06,-216.35 307.26,-216.35 307.26,-216.35 313.26,-216.35 319.26,-222.35 319.26,-228.35 319.26,-228.35 319.26,-248.35 319.26,-248.35 319.26,-254.35 313.26,-260.35 307.26,-260.35"/>
<text xml:space="preserve" text-anchor="middle" x="261.66" y="-244" font-family="Segoe UI,Helvetica,Arial,sans-serif" font-size="13.00" fill="white">CAPEC</text>
<text xml:space="preserve" text-anchor="middle" x="261.66" y="-226" font-family="Segoe UI,Helvetica,Arial,sans-serif" font-size="13.00" fill="white">Attack Patterns</text>
</g>
<!-- CWE&#45;&gt;CAPEC -->
<g id="edge2" class="edge">
<title>CWE&#45;&gt;CAPEC</title>
<path fill="none" stroke="#e67e22" stroke-width="2" d="M126.22,-174.44C149.18,-185.35 176.8,-198.48 201.01,-209.99"/>
<polygon fill="#e67e22" stroke="#e67e22" stroke-width="2" points="199.66,-212.84 209.14,-213.86 202.36,-207.15 199.66,-212.84"/>
</g>
<!-- CAPEC&#45;&gt;ATTACK -->
<g id="edge3" class="edge">
<title>CAPEC&#45;&gt;ATTACK</title>
<path fill="none" stroke="#e94560" stroke-width="2" d="M312.55,-215.26C336.24,-204.3 364.76,-191.1 389.72,-179.55"/>
<polygon fill="#e94560" stroke="#e94560" stroke-width="2" points="390.95,-182.45 397.79,-175.81 388.3,-176.74 390.95,-182.45"/>
</g>
<!-- D3FEND -->
<g id="node5" class="node">
<title>D3FEND</title>
<path fill="#0f3460" stroke="#16a085" stroke-width="2.5" d="M688.91,-87.35C688.91,-87.35 596.41,-87.35 596.41,-87.35 590.41,-87.35 584.41,-81.35 584.41,-75.35 584.41,-75.35 584.41,-55.35 584.41,-55.35 584.41,-49.35 590.41,-43.35 596.41,-43.35 596.41,-43.35 688.91,-43.35 688.91,-43.35 694.91,-43.35 700.91,-49.35 700.91,-55.35 700.91,-55.35 700.91,-75.35 700.91,-75.35 700.91,-81.35 694.91,-87.35 688.91,-87.35"/>
<text xml:space="preserve" text-anchor="middle" x="642.66" y="-71" font-family="Segoe UI,Helvetica,Arial,sans-serif" font-size="13.00" fill="white">D3FEND</text>
<text xml:space="preserve" text-anchor="middle" x="642.66" y="-53" font-family="Segoe UI,Helvetica,Arial,sans-serif" font-size="13.00" fill="white">Countermeasures</text>
</g>
<!-- ATTACK&#45;&gt;D3FEND -->
<g id="edge5" class="edge">
<title>ATTACK&#45;&gt;D3FEND</title>
<path fill="none" stroke="#16a085" stroke-width="2" d="M503.31,-128.3C526.93,-117.55 555.25,-104.67 580.09,-93.36"/>
<polygon fill="#16a085" stroke="#16a085" stroke-width="2" points="581.23,-96.31 588.12,-89.71 578.62,-90.57 581.23,-96.31"/>
</g>
<!-- ATLAS -->
<g id="node6" class="node">
<title>ATLAS</title>
<path fill="#0f3460" stroke="#9b59b6" stroke-width="2.5" d="M688.26,-260.35C688.26,-260.35 597.06,-260.35 597.06,-260.35 591.06,-260.35 585.06,-254.35 585.06,-248.35 585.06,-248.35 585.06,-228.35 585.06,-228.35 585.06,-222.35 591.06,-216.35 597.06,-216.35 597.06,-216.35 688.26,-216.35 688.26,-216.35 694.26,-216.35 700.26,-222.35 700.26,-228.35 700.26,-228.35 700.26,-248.35 700.26,-248.35 700.26,-254.35 694.26,-260.35 688.26,-260.35"/>
<text xml:space="preserve" text-anchor="middle" x="642.66" y="-244" font-family="Segoe UI,Helvetica,Arial,sans-serif" font-size="13.00" fill="white">ATLAS</text>
<text xml:space="preserve" text-anchor="middle" x="642.66" y="-226" font-family="Segoe UI,Helvetica,Arial,sans-serif" font-size="13.00" fill="white">AI/ML Threats</text>
</g>
<!-- ATTACK&#45;&gt;ATLAS -->
<g id="edge6" class="edge">
<title>ATTACK&#45;&gt;ATLAS</title>
<path fill="none" stroke="#9b59b6" stroke-width="2" d="M502.81,-174.44C526.63,-185.4 555.3,-198.6 580.4,-210.15"/>
<polygon fill="#9b59b6" stroke="#9b59b6" stroke-width="2" points="579.03,-212.99 588.52,-213.89 581.66,-207.27 579.03,-212.99"/>
</g>
</g>
</svg>
