<?xml version="1.0" encoding="UTF-8" standalone="no"?>
<!DOCTYPE svg PUBLIC "-//W3C//DTD SVG 1.1//EN"
 "http://www.w3.org/Graphics/SVG/1.1/DTD/svg11.dtd">
<!-- Generated by graphviz version 14.1.2 (20260124.0452)
 -->
<!-- Title: owasp Pages: 1 -->
<svg host="drawio-gen" content="&lt;mxfile host=&quot;drawio-gen&quot;&gt;&lt;diagram name=&quot;Page-1&quot; id=&quot;page1&quot;&gt;&lt;mxGraphModel&gt;&lt;root&gt;&lt;mxCell id=&quot;0&quot; /&gt;&lt;mxCell id=&quot;1&quot; parent=&quot;0&quot; /&gt;&lt;mxCell id=&quot;2&quot; value=&quot;Secure Coding&quot; style=&quot;rounded=1;whiteSpace=wrap;html=1;fillColor=#27ae60;strokeColor=#2ecc71;fontColor=#ffffff;fontSize=13;fontStyle=1;&quot; vertex=&quot;1&quot; parent=&quot;1&quot;&gt;&lt;mxGeometry x=&quot;12.4&quot; y=&quot;-357.5&quot; width=&quot;115.2&quot; height=&quot;43.2&quot; as=&quot;geometry&quot; /&gt;&lt;/mxCell&gt;&lt;mxCell id=&quot;3&quot; value=&quot;Behavioral&amp;lt;br&amp;gt;Monitoring&quot; style=&quot;rounded=1;whiteSpace=wrap;html=1;fillColor=#2980b9;strokeColor=#3498db;fontColor=#ffffff;fontSize=13;fontStyle=1;&quot; vertex=&quot;1&quot; parent=&quot;1&quot;&gt;&lt;mxGeometry x=&quot;12.4&quot; y=&quot;-268.9&quot; width=&quot;115.2&quot; height=&quot;44.0&quot; as=&quot;geometry&quot; /&gt;&lt;/mxCell&gt;&lt;mxCell id=&quot;4&quot; value=&quot;Vulnerability&amp;lt;br&amp;gt;Testing&quot; style=&quot;rounded=1;whiteSpace=wrap;html=1;fillColor=#d35400;strokeColor=#e67e22;fontColor=#ffffff;fontSize=13;fontStyle=1;&quot; vertex=&quot;1&quot; parent=&quot;1&quot;&gt;&lt;mxGeometry x=&quot;205.4&quot; y=&quot;-224.9&quot; width=&quot;115.2&quot; height=&quot;44.0&quot; as=&quot;geometry&quot; /&gt;&lt;/mxCell&gt;&lt;mxCell id=&quot;5&quot; value=&quot;Technique&amp;lt;br&amp;gt;Correlation&quot; style=&quot;rounded=1;whiteSpace=wrap;html=1;fillColor=#8e44ad;strokeColor=#9b59b6;fontColor=#ffffff;fontSize=13;fontStyle=1;&quot; vertex=&quot;1&quot; parent=&quot;1&quot;&gt;&lt;mxGeometry x=&quot;205.4&quot; y=&quot;-135.9&quot; width=&quot;115.2&quot; height=&quot;44.0&quot; as=&quot;geometry&quot; /&gt;&lt;/mxCell&gt;&lt;mxCell id=&quot;6&quot; value=&quot;Security&amp;lt;br&amp;gt;Reviews&quot; style=&quot;rounded=1;whiteSpace=wrap;html=1;fillColor=#c0392b;strokeColor=#e74c3c;fontColor=#ffffff;fontSize=13;fontStyle=1;&quot; vertex=&quot;1&quot; parent=&quot;1&quot;&gt;&lt;mxGeometry x=&quot;399.4&quot; y=&quot;-135.9&quot; width=&quot;115.2&quot; height=&quot;44.0&quot; as=&quot;geometry&quot; /&gt;&lt;/mxCell&gt;&lt;mxCell id=&quot;7&quot; value=&quot;Threat&amp;lt;br&amp;gt;Hunting&quot; style=&quot;rounded=1;whiteSpace=wrap;html=1;fillColor=#e74c3c;strokeColor=#c0392b;fontColor=#ffffff;fontSize=13;fontStyle=1;&quot; vertex=&quot;1&quot; parent=&quot;1&quot;&gt;&lt;mxGeometry x=&quot;399.4&quot; y=&quot;-46.9&quot; width=&quot;115.2&quot; height=&quot;44.0&quot; as=&quot;geometry&quot; /&gt;&lt;/mxCell&gt;&lt;mxCell id=&quot;8&quot; value=&quot;Secure&amp;lt;br&amp;gt;by Design&quot; style=&quot;rounded=1;whiteSpace=wrap;html=1;fillColor=#16a085;strokeColor=#1abc9c;fontColor=#ffffff;fontSize=13;fontStyle=1;&quot; vertex=&quot;1&quot; parent=&quot;1&quot;&gt;&lt;mxGeometry x=&quot;205.4&quot; y=&quot;-313.9&quot; width=&quot;115.2&quot; height=&quot;44.0&quot; as=&quot;geometry&quot; /&gt;&lt;/mxCell&gt;&lt;mxCell id=&quot;9&quot; value=&quot;Monitor&amp;lt;br&amp;gt;by Behavior&quot; style=&quot;rounded=1;whiteSpace=wrap;html=1;fillColor=#16a085;strokeColor=#1abc9c;fontColor=#ffffff;fontSize=13;fontStyle=1;&quot; vertex=&quot;1&quot; parent=&quot;1&quot;&gt;&lt;mxGeometry x=&quot;399.4&quot; y=&quot;-224.9&quot; width=&quot;115.2&quot; height=&quot;44.0&quot; as=&quot;geometry&quot; /&gt;&lt;/mxCell&gt;&lt;mxCell id=&quot;10&quot; value=&quot;Respond by&amp;lt;br&amp;gt;Intelligence&quot; style=&quot;rounded=1;whiteSpace=wrap;html=1;fillColor=#16a085;strokeColor=#1abc9c;fontColor=#ffffff;fontSize=13;fontStyle=1;&quot; vertex=&quot;1&quot; parent=&quot;1&quot;&gt;&lt;mxGeometry x=&quot;592.4&quot; y=&quot;-135.9&quot; width=&quot;115.2&quot; height=&quot;44.0&quot; as=&quot;geometry&quot; /&gt;&lt;/mxCell&gt;&lt;mxCell id=&quot;11&quot; value=&quot;&quot; style=&quot;endArrow=block;endFill=1;strokeColor=#2ecc71;strokeWidth=2;&quot; edge=&quot;1&quot; source=&quot;2&quot; target=&quot;8&quot; parent=&quot;1&quot;&gt;&lt;mxGeometry relative=&quot;1&quot; as=&quot;geometry&quot; /&gt;&lt;/mxCell&gt;&lt;mxCell id=&quot;12&quot; value=&quot;&quot; style=&quot;endArrow=block;endFill=1;strokeColor=#3498db;strokeWidth=2;&quot; edge=&quot;1&quot; source=&quot;3&quot; target=&quot;8&quot; parent=&quot;1&quot;&gt;&lt;mxGeometry relative=&quot;1&quot; as=&quot;geometry&quot; /&gt;&lt;/mxCell&gt;&lt;mxCell id=&quot;13&quot; value=&quot;&quot; style=&quot;endArrow=block;endFill=1;strokeColor=#e67e22;strokeWidth=2;&quot; edge=&quot;1&quot; source=&quot;4&quot; target=&quot;9&quot; parent=&quot;1&quot;&gt;&lt;mxGeometry relative=&quot;1&quot; as=&quot;geometry&quot; /&gt;&lt;/mxCell&gt;&lt;mxCell id=&quot;14&quot; value=&quot;&quot; style=&quot;endArrow=block;endFill=1;strokeColor=#9b59b6;strokeWidth=2;&quot; edge=&quot;1&quot; source=&quot;5&quot; target=&quot;9&quot; parent=&quot;1&quot;&gt;&lt;mxGeometry relative=&quot;1&quot; as=&quot;geometry&quot; /&gt;&lt;/mxCell&gt;&lt;mxCell id=&quot;15&quot; value=&quot;&quot; style=&quot;endArrow=block;endFill=1;strokeColor=#e74c3c;strokeWidth=2;&quot; edge=&quot;1&quot; source=&quot;6&quot; target=&quot;10&quot; parent=&quot;1&quot;&gt;&lt;mxGeometry relative=&quot;1&quot; as=&quot;geometry&quot; /&gt;&lt;/mxCell&gt;&lt;mxCell id=&quot;16&quot; value=&quot;&quot; style=&quot;endArrow=block;endFill=1;strokeColor=#c0392b;strokeWidth=2;&quot; edge=&quot;1&quot; source=&quot;7&quot; target=&quot;10&quot; parent=&quot;1&quot;&gt;&lt;mxGeometry relative=&quot;1&quot; as=&quot;geometry&quot; /&gt;&lt;/mxCell&gt;&lt;mxCell id=&quot;17&quot; value=&quot;&quot; style=&quot;endArrow=block;endFill=1;strokeColor=#1abc9c;strokeWidth=2;&quot; edge=&quot;1&quot; source=&quot;8&quot; target=&quot;9&quot; parent=&quot;1&quot;&gt;&lt;mxGeometry relative=&quot;1&quot; as=&quot;geometry&quot; /&gt;&lt;/mxCell&gt;&lt;mxCell id=&quot;18&quot; value=&quot;&quot; style=&quot;endArrow=block;endFill=1;strokeColor=#1abc9c;strokeWidth=2;&quot; edge=&quot;1&quot; source=&quot;9&quot; target=&quot;10&quot; parent=&quot;1&quot;&gt;&lt;mxGeometry relative=&quot;1&quot; as=&quot;geometry&quot; /&gt;&lt;/mxCell&gt;&lt;/root&gt;&lt;/mxGraphModel&gt;&lt;/diagram&gt;&lt;/mxfile&gt;" width="670pt" height="360pt"
 viewBox="0.00 0.00 670.00 360.00" xmlns="http://www.w3.org/2000/svg" xmlns:xlink="http://www.w3.org/1999/xlink">
<g id="graph0" class="graph" transform="scale(0.862069 0.862069) rotate(0) translate(28.8 388.8)">
<title>owasp</title>
<polygon fill="#1a1a2e" stroke="none" points="-28.8,28.8 -28.8,-388.8 748.8,-388.8 748.8,28.8 -28.8,28.8"/>
<!-- SC -->
<g id="node1" class="node">
<title>SC</title>
<path fill="#27ae60" stroke="#2ecc71" stroke-width="2.5" d="M115.6,-357.46C115.6,-357.46 24.4,-357.46 24.4,-357.46 18.4,-357.46 12.4,-351.46 12.4,-345.46 12.4,-345.46 12.4,-326.26 12.4,-326.26 12.4,-320.26 18.4,-314.26 24.4,-314.26 24.4,-314.26 115.6,-314.26 115.6,-314.26 121.6,-314.26 127.6,-320.26 127.6,-326.26 127.6,-326.26 127.6,-345.46 127.6,-345.46 127.6,-351.46 121.6,-357.46 115.6,-357.46"/>
<text xml:space="preserve" text-anchor="middle" x="70" y="-332.51" font-family="Segoe UI,Helvetica,Arial,sans-serif" font-size="13.00" fill="white">Secure Coding</text>
</g>
<!-- SBD -->
<g id="node7" class="node">
<title>SBD</title>
<path fill="#16a085" stroke="#1abc9c" stroke-width="2.5" d="M308.6,-313.86C308.6,-313.86 217.4,-313.86 217.4,-313.86 211.4,-313.86 205.4,-307.86 205.4,-301.86 205.4,-301.86 205.4,-281.86 205.4,-281.86 205.4,-275.86 211.4,-269.86 217.4,-269.86 217.4,-269.86 308.6,-269.86 308.6,-269.86 314.6,-269.86 320.6,-275.86 320.6,-281.86 320.6,-281.86 320.6,-301.86 320.6,-301.86 320.6,-307.86 314.6,-313.86 308.6,-313.86"/>
<text xml:space="preserve" text-anchor="middle" x="263" y="-297.51" font-family="Segoe UI,Helvetica,Arial,sans-serif" font-size="13.00" fill="white">Secure</text>
<text xml:space="preserve" text-anchor="middle" x="263" y="-279.51" font-family="Segoe UI,Helvetica,Arial,sans-serif" font-size="13.00" fill="white">by Design</text>
</g>
<!-- SC&#45;&gt;SBD -->
<g id="edge1" class="edge">
<title>SC&#45;&gt;SBD</title>
<path fill="none" stroke="#2ecc71" stroke-width="2" d="M128.82,-322.54C149.02,-317.89 171.89,-312.62 192.91,-307.78"/>
<polygon fill="#2ecc71" stroke="#2ecc71" stroke-width="2" points="193.36,-310.91 201.42,-305.82 191.94,-304.77 193.36,-310.91"/>
</g>
<!-- BM -->
<g id="node2" class="node">
<title>BM</title>
<path fill="#2980b9" stroke="#3498db" stroke-width="2.5" d="M115.6,-268.86C115.6,-268.86 24.4,-268.86 24.4,-268.86 18.4,-268.86 12.4,-262.86 12.4,-256.86 12.4,-256.86 12.4,-236.86 12.4,-236.86 12.4,-230.86 18.4,-224.86 24.4,-224.86 24.4,-224.86 115.6,-224.86 115.6,-224.86 121.6,-224.86 127.6,-230.86 127.6,-236.86 127.6,-236.86 127.6,-256.86 127.6,-256.86 127.6,-262.86 121.6,-268.86 115.6,-268.86"/>
<text xml:space="preserve" text-anchor="middle" x="70" y="-252.51" font-family="Segoe UI,Helvetica,Arial,sans-serif" font-size="13.00" fill="white">Behavioral</text>
<text xml:space="preserve" text-anchor="middle" x="70" y="-234.51" font-family="Segoe UI,Helvetica,Arial,sans-serif" font-size="13.00" fill="white">Monitoring</text>
</g>
<!-- BM&#45;&gt;SBD -->
<g id="edge2" class="edge">
<title>BM&#45;&gt;SBD</title>
<path fill="none" stroke="#3498db" stroke-width="2" d="M128.82,-260.48C149.02,-265.24 171.89,-270.63 192.91,-275.58"/>
<polygon fill="#3498db" stroke="#3498db" stroke-width="2" points="191.94,-278.59 201.43,-277.59 193.39,-272.46 191.94,-278.59"/>
</g>
<!-- VT -->
<g id="node3" class="node">
<title>VT</title>
<path fill="#d35400" stroke="#e67e22" stroke-width="2.5" d="M308.6,-224.86C308.6,-224.86 217.4,-224.86 217.4,-224.86 211.4,-224.86 205.4,-218.86 205.4,-212.86 205.4,-212.86 205.4,-192.86 205.4,-192.86 205.4,-186.86 211.4,-180.86 217.4,-180.86 217.4,-180.86 308.6,-180.86 308.6,-180.86 314.6,-180.86 320.6,-186.86 320.6,-192.86 320.6,-192.86 320.6,-212.86 320.6,-212.86 320.6,-218.86 314.6,-224.86 308.6,-224.86"/>
<text xml:space="preserve" text-anchor="middle" x="263" y="-208.51" font-family="Segoe UI,Helvetica,Arial,sans-serif" font-size="13.00" fill="white">Vulnerability</text>
<text xml:space="preserve" text-anchor="middle" x="263" y="-190.51" font-family="Segoe UI,Helvetica,Arial,sans-serif" font-size="13.00" fill="white">Testing</text>
</g>
<!-- MBB -->
<g id="node8" class="node">
<title>MBB</title>
<path fill="#16a085" stroke="#1abc9c" stroke-width="2.5" d="M502.6,-224.86C502.6,-224.86 411.4,-224.86 411.4,-224.86 405.4,-224.86 399.4,-218.86 399.4,-212.86 399.4,-212.86 399.4,-192.86 399.4,-192.86 399.4,-186.86 405.4,-180.86 411.4,-180.86 411.4,-180.86 502.6,-180.86 502.6,-180.86 508.6,-180.86 514.6,-186.86 514.6,-192.86 514.6,-192.86 514.6,-212.86 514.6,-212.86 514.6,-218.86 508.6,-224.86 502.6,-224.86"/>
<text xml:space="preserve" text-anchor="middle" x="457" y="-208.51" font-family="Segoe UI,Helvetica,Arial,sans-serif" font-size="13.00" fill="white">Monitor</text>
<text xml:space="preserve" text-anchor="middle" x="457" y="-190.51" font-family="Segoe UI,Helvetica,Arial,sans-serif" font-size="13.00" fill="white">by Behavior</text>
</g>
<!-- VT&#45;&gt;MBB -->
<g id="edge3" class="edge">
<title>VT&#45;&gt;MBB</title>
<path fill="none" stroke="#e67e22" stroke-width="2" d="M321.61,-202.86C342.02,-202.86 365.2,-202.86 386.49,-202.86"/>
<polygon fill="#e67e22" stroke="#e67e22" stroke-width="2" points="386.41,-206.01 395.41,-202.86 386.41,-199.71 386.41,-206.01"/>
</g>
<!-- TC -->
<g id="node4" class="node">
<title>TC</title>
<path fill="#8e44ad" stroke="#9b59b6" stroke-width="2.5" d="M308.6,-135.86C308.6,-135.86 217.4,-135.86 217.4,-135.86 211.4,-135.86 205.4,-129.86 205.4,-123.86 205.4,-123.86 205.4,-103.86 205.4,-103.86 205.4,-97.86 211.4,-91.86 217.4,-91.86 217.4,-91.86 308.6,-91.86 308.6,-91.86 314.6,-91.86 320.6,-97.86 320.6,-103.86 320.6,-103.86 320.6,-123.86 320.6,-123.86 320.6,-129.86 314.6,-135.86 308.6,-135.86"/>
<text xml:space="preserve" text-anchor="middle" x="263" y="-119.51" font-family="Segoe UI,Helvetica,Arial,sans-serif" font-size="13.00" fill="white">Technique</text>
<text xml:space="preserve" text-anchor="middle" x="263" y="-101.51" font-family="Segoe UI,Helvetica,Arial,sans-serif" font-size="13.00" fill="white">Correlation</text>
</g>
<!-- TC&#45;&gt;MBB -->
<g id="edge4" class="edge">
<title>TC&#45;&gt;MBB</title>
<path fill="none" stroke="#9b59b6" stroke-width="2" d="M313.94,-137.01C338.85,-148.55 369.17,-162.61 395.39,-174.77"/>
<polygon fill="#9b59b6" stroke="#9b59b6" stroke-width="2" points="393.74,-177.47 403.23,-178.4 396.39,-171.75 393.74,-177.47"/>
</g>
<!-- SR -->
<g id="node5" class="node">
<title>SR</title>
<path fill="#c0392b" stroke="#e74c3c" stroke-width="2.5" d="M502.6,-135.86C502.6,-135.86 411.4,-135.86 411.4,-135.86 405.4,-135.86 399.4,-129.86 399.4,-123.86 399.4,-123.86 399.4,-103.86 399.4,-103.86 399.4,-97.86 405.4,-91.86 411.4,-91.86 411.4,-91.86 502.6,-91.86 502.6,-91.86 508.6,-91.86 514.6,-97.86 514.6,-103.86 514.6,-103.86 514.6,-123.86 514.6,-123.86 514.6,-129.86 508.6,-135.86 502.6,-135.86"/>
<text xml:space="preserve" text-anchor="middle" x="457" y="-119.51" font-family="Segoe UI,Helvetica,Arial,sans-serif" font-size="13.00" fill="white">Security</text>
<text xml:space="preserve" text-anchor="middle" x="457" y="-101.51" font-family="Segoe UI,Helvetica,Arial,sans-serif" font-size="13.00" fill="white">Reviews</text>
</g>
<!-- RBI -->
<g id="node9" class="node">
<title>RBI</title>
<path fill="#16a085" stroke="#1abc9c" stroke-width="2.5" d="M695.6,-135.86C695.6,-135.86 604.4,-135.86 604.4,-135.86 598.4,-135.86 592.4,-129.86 592.4,-123.86 592.4,-123.86 592.4,-103.86 592.4,-103.86 592.4,-97.86 598.4,-91.86 604.4,-91.86 604.4,-91.86 695.6,-91.86 695.6,-91.86 701.6,-91.86 707.6,-97.86 707.6,-103.86 707.6,-103.86 707.6,-123.86 707.6,-123.86 707.6,-129.86 701.6,-135.86 695.6,-135.86"/>
<text xml:space="preserve" text-anchor="middle" x="650" y="-119.51" font-family="Segoe UI,Helvetica,Arial,sans-serif" font-size="13.00" fill="white">Respond by</text>
<text xml:space="preserve" text-anchor="middle" x="650" y="-101.51" font-family="Segoe UI,Helvetica,Arial,sans-serif" font-size="13.00" fill="white">Intelligence</text>
</g>
<!-- SR&#45;&gt;RBI -->
<g id="edge5" class="edge">
<title>SR&#45;&gt;RBI</title>
<path fill="none" stroke="#e74c3c" stroke-width="2" d="M515.82,-113.86C535.93,-113.86 558.68,-113.86 579.62,-113.86"/>
<polygon fill="#e74c3c" stroke="#e74c3c" stroke-width="2" points="579.34,-117.01 588.34,-113.86 579.34,-110.71 579.34,-117.01"/>
</g>
<!-- TH -->
<g id="node6" class="node">
<title>TH</title>
<path fill="#e74c3c" stroke="#c0392b" stroke-width="2.5" d="M502.6,-46.86C502.6,-46.86 411.4,-46.86 411.4,-46.86 405.4,-46.86 399.4,-40.86 399.4,-34.86 399.4,-34.86 399.4,-14.86 399.4,-14.86 399.4,-8.86 405.4,-2.86 411.4,-2.86 411.4,-2.86 502.6,-2.86 502.6,-2.86 508.6,-2.86 514.6,-8.86 514.6,-14.86 514.6,-14.86 514.6,-34.86 514.6,-34.86 514.6,-40.86 508.6,-46.86 502.6,-46.86"/>
<text xml:space="preserve" text-anchor="middle" x="457" y="-30.51" font-family="Segoe UI,Helvetica,Arial,sans-serif" font-size="13.00" fill="white">Threat</text>
<text xml:space="preserve" text-anchor="middle" x="457" y="-12.51" font-family="Segoe UI,Helvetica,Arial,sans-serif" font-size="13.00" fill="white">Hunting</text>
</g>
<!-- TH&#45;&gt;RBI -->
<g id="edge6" class="edge">
<title>TH&#45;&gt;RBI</title>
<path fill="none" stroke="#c0392b" stroke-width="2" d="M507.68,-48.01C532.35,-59.5 562.35,-73.48 588.36,-85.6"/>
<polygon fill="#c0392b" stroke="#c0392b" stroke-width="2" points="587,-88.45 596.49,-89.39 589.66,-82.74 587,-88.45"/>
</g>
<!-- SBD&#45;&gt;MBB -->
<g id="edge7" class="edge">
<title>SBD&#45;&gt;MBB</title>
<path fill="none" stroke="#1abc9c" stroke-width="2" d="M313.94,-268.71C338.85,-257.17 369.17,-243.11 395.39,-230.95"/>
<polygon fill="#1abc9c" stroke="#1abc9c" stroke-width="2" points="396.39,-233.97 403.23,-227.32 393.74,-228.25 396.39,-233.97"/>
</g>
<!-- MBB&#45;&gt;RBI -->
<g id="edge8" class="edge">
<title>MBB&#45;&gt;RBI</title>
<path fill="none" stroke="#1abc9c" stroke-width="2" d="M507.68,-179.71C532.35,-168.22 562.35,-154.24 588.36,-142.12"/>
<polygon fill="#1abc9c" stroke="#1abc9c" stroke-width="2" points="589.66,-144.99 596.49,-138.33 587,-139.27 589.66,-144.99"/>
</g>
</g>
</svg>
