<?xml version="1.0" standalone="no"?>
<!DOCTYPE svg PUBLIC "-//W3C//DTD SVG 20010904//EN"
 "http://www.w3.org/TR/2001/REC-SVG-20010904/DTD/svg10.dtd">
<svg version="1.0" xmlns="http://www.w3.org/2000/svg"
 width="700.000000pt" height="700.000000pt" viewBox="0 0 700.000000 700.000000"
 preserveAspectRatio="xMidYMid meet">
<metadata>
Created by potrace 1.14, written by Peter Selinger 2001-2017
</metadata>
<g transform="translate(0.000000,700.000000) scale(0.100000,-0.100000)"
fill="#000000" stroke="none">
<path d="M3425 5763 c-84 -7 -234 -35 -338 -64 -106 -30 -256 -92 -269 -113
-10 -15 0 -26 25 -26 18 -1 16 -3 -11 -15 -139 -61 -340 -254 -284 -273 19 -6
14 -19 -23 -59 -87 -93 -186 -276 -223 -408 -13 -49 -18 -91 -15 -141 3 -59
-1 -84 -22 -139 -30 -81 -49 -223 -42 -325 4 -63 1 -80 -14 -98 -11 -14 -16
-33 -13 -50 12 -80 16 -93 31 -108 9 -9 18 -33 20 -53 1 -20 6 -47 10 -61 12
-44 2 -111 -29 -199 -67 -193 -88 -275 -92 -360 -3 -47 -9 -102 -16 -121 -6
-19 -11 -79 -11 -132 0 -75 -4 -107 -19 -140 -21 -46 -26 -127 -11 -174 8 -23
15 -76 21 -142 0 -2 21 -25 46 -52 37 -39 51 -65 65 -117 11 -37 35 -94 55
-126 20 -32 45 -92 55 -132 19 -79 48 -143 72 -164 9 -7 32 -55 52 -108 31
-79 48 -106 100 -162 34 -36 82 -98 107 -136 49 -77 103 -126 160 -144 20 -7
54 -26 75 -43 67 -54 111 -77 155 -84 24 -3 52 -7 63 -9 11 -2 41 -12 67 -24
59 -25 126 -33 169 -20 19 6 66 12 105 14 87 5 115 15 179 65 27 21 72 44 99
51 35 9 60 24 90 55 22 24 66 70 97 101 32 32 62 67 67 78 6 12 29 25 56 32
44 12 96 55 96 80 0 7 19 18 42 25 43 13 118 79 118 103 0 7 15 20 34 29 36
17 61 48 72 90 3 15 18 35 32 44 14 9 48 38 74 64 37 37 49 57 54 90 6 33 17
51 52 83 56 51 73 83 71 138 -2 31 4 52 20 73 12 16 25 52 30 79 5 28 15 65
22 82 11 28 11 39 -3 77 -11 29 -14 55 -9 77 4 19 3 52 -2 74 -15 67 -15 175
0 184 8 4 29 70 47 147 18 76 50 181 71 233 95 239 98 343 10 434 -29 30 -28
22 -9 222 12 125 11 395 -1 480 -20 135 -25 162 -46 265 -44 208 -102 349
-147 360 l-24 5 21 19 c31 28 28 64 -6 72 -16 3 -31 6 -34 7 -3 1 -26 27 -51
57 -79 99 -194 179 -395 279 -119 59 -258 108 -358 127 -11 2 -31 6 -45 9 -72
15 -263 25 -345 18z m-780 -1643 c3 -5 1 -10 -4 -10 -6 0 -11 5 -11 10 0 6 2
10 4 10 3 0 8 -4 11 -10z m1105 -34 c0 -3 -4 -8 -10 -11 -5 -3 -10 -1 -10 4 0
6 5 11 10 11 6 0 10 -2 10 -4z"/>
<path d="M4450 1845 c-43 -44 -45 -45 -52 -23 -5 18 -6 19 -7 4 -1 -15 -4 -16
-16 -6 -14 11 -14 10 -5 -14 12 -34 12 -36 0 -36 -5 0 -10 6 -10 14 0 8 -4 17
-9 21 -11 6 -7 -27 7 -51 7 -13 13 -11 38 17 16 17 38 41 49 53 33 34 58 66
54 66 -3 0 -25 -20 -49 -45z"/>
<path d="M4310 1761 c0 -16 34 -45 38 -32 2 6 -3 18 -11 26 -18 17 -27 19 -27
6z"/>
<path d="M4270 1734 c0 -27 20 -54 39 -54 17 0 18 3 8 31 -12 30 -12 30 -18 7
-6 -21 -7 -21 -9 -3 -1 11 -2 23 -1 28 0 4 -3 7 -9 7 -5 0 -10 -7 -10 -16z"/>
<path d="M4227 1720 c-16 -19 -14 -25 7 -21 5 1 18 -6 29 -16 20 -18 20 -18 3
9 -10 15 -15 32 -11 38 11 18 -10 11 -28 -10z"/>
<path d="M4190 1681 c0 -19 29 -34 43 -22 8 6 18 7 23 3 4 -4 2 1 -5 11 -14
18 -26 24 -16 7 3 -5 2 -10 -4 -10 -5 0 -13 5 -16 10 -8 12 -25 13 -25 1z"/>
<path d="M4173 1650 c6 -24 6 -24 -10 -5 -15 19 -15 19 -9 -7 4 -17 2 -28 -4
-28 -5 0 -10 8 -11 18 0 11 -2 12 -6 4 -7 -19 6 -64 17 -57 6 4 8 11 4 16 -3
5 -2 8 3 7 5 -2 18 6 29 17 l21 20 -20 20 -20 20 6 -25z"/>
<path d="M4081 1569 c-1 -29 23 -57 34 -39 3 5 2 10 -4 10 -5 0 -14 12 -19 28
l-10 27 -1 -26z"/>
<path d="M4047 1553 c-6 -16 -14 -30 -17 -33 -10 -10 -10 -39 0 -45 5 -3 7 0
4 8 -3 8 2 19 10 26 12 10 14 9 12 -6 -2 -10 -1 -12 1 -5 3 7 8 10 11 8 4 -2
6 13 4 35 -2 21 -6 39 -8 39 -3 0 -10 -12 -17 -27z"/>
<path d="M4100 1576 c0 -2 7 -6 15 -10 8 -3 15 -1 15 4 0 6 -7 10 -15 10 -8 0
-15 -2 -15 -4z"/>
</g>
</svg>
